<?xml version="1.0" standalone="no"?>
<!DOCTYPE svg PUBLIC "-//W3C//DTD SVG 20010904//EN"
 "http://www.w3.org/TR/2001/REC-SVG-20010904/DTD/svg10.dtd">
<svg version="1.0" xmlns="http://www.w3.org/2000/svg"
 width="800.000000pt" height="800.000000pt" viewBox="0 0 800.000000 800.000000"
 preserveAspectRatio="xMidYMid meet">
<metadata>
Created by potrace 1.14, written by Peter Selinger 2001-2017
</metadata>
<g transform="translate(0.000000,800.000000) scale(0.100000,-0.100000)"
fill="#000000" stroke="none">
<path d="M0 4000 l0 -4000 4000 0 4000 0 0 4000 0 4000 -4000 0 -4000 0 0
-4000z m2024 1708 c4 -29 25 -120 46 -203 107 -419 275 -738 552 -1046 l68
-76 -15 -64 c-93 -395 305 -721 671 -550 44 21 87 52 131 96 l66 66 58 -20
c120 -40 220 -128 279 -246 58 -116 60 -140 60 -590 l0 -410 -34 -50 c-114
-169 -290 -293 -526 -371 -77 -25 -98 -28 -225 -28 -123 1 -151 4 -230 28
-598 181 -1201 906 -1350 1622 -97 468 -31 986 188 1470 75 165 232 438 248
429 3 -3 9 -28 13 -57z m4135 -176 c293 -529 397 -1132 286 -1666 -87 -417
-332 -853 -669 -1188 -218 -217 -447 -363 -681 -434 -79 -24 -107 -27 -230
-28 -127 0 -148 3 -225 28 -236 78 -412 202 -526 371 l-34 50 0 410 c0 450 2
474 60 590 59 116 158 205 275 245 l54 19 65 -65 c76 -76 163 -121 266 -137
331 -51 613 259 535 589 l-14 61 70 74 c259 275 449 629 553 1031 19 73 40
162 46 198 7 36 14 72 16 80 6 17 73 -83 153 -228z m-1754 -272 c194 -12 420
-33 580 -56 127 -18 442 -74 467 -83 15 -5 12 -13 -19 -64 -19 -32 -34 -60
-32 -62 2 -1 30 1 62 6 102 16 183 68 243 155 20 29 39 54 42 54 3 0 2 -35 -1
-78 -19 -240 -147 -352 -493 -432 l-121 -28 -79 -66 c-214 -181 -510 -336
-643 -336 l-59 0 -50 -62 c-82 -104 -171 -246 -231 -370 -31 -64 -58 -117 -61
-117 -3 0 -33 57 -67 127 -62 129 -144 260 -228 365 l-45 57 -70 0 c-79 0
-141 20 -290 95 -148 74 -297 176 -410 280 -29 27 -56 38 -155 63 -154 38
-221 64 -294 113 -105 70 -158 168 -167 313 -6 90 -10 89 53 3 52 -72 176
-143 236 -135 l26 3 -34 55 c-41 66 -54 58 150 95 281 52 576 87 855 104 199
12 640 12 835 1z"/>
</g>
</svg>
